<svg width="328" height="57" viewBox="0 0 328 57" fill="none" xmlns="http://www.w3.org/2000/svg">
  <rect y="4" width="312" height="49" rx="24.5" fill="#3fbc09"/>
  <path
    d="M31.9145 34.0964C31.0684 34.0964 30.2812 33.9572 29.5529 33.6787C28.8353 33.3895 28.2087 32.9879 27.6732 32.4738C27.1484 31.949 26.7361 31.3438 26.4362 30.6584C26.147 29.9622 26.0024 29.2017 26.0024 28.377C26.0024 27.5523 26.147 26.7973 26.4362 26.1118C26.7361 25.4156 27.1484 24.8105 27.6732 24.2964C28.2087 23.7716 28.8353 23.3699 29.5529 23.0915C30.2705 22.8023 31.0577 22.6577 31.9145 22.6577C32.7607 22.6577 33.5425 22.8023 34.2601 23.0915C34.9777 23.3699 35.5989 23.7662 36.1237 24.2803C36.6592 24.7944 37.0716 25.3996 37.3608 26.0957C37.6607 26.7919 37.8106 27.5523 37.8106 28.377C37.8106 29.2017 37.6607 29.9622 37.3608 30.6584C37.0716 31.3545 36.6592 31.9597 36.1237 32.4738C35.5989 32.9879 34.9777 33.3895 34.2601 33.6787C33.5425 33.9572 32.7607 34.0964 31.9145 34.0964ZM31.9145 33.0361C32.5893 33.0361 33.2105 32.9236 33.7781 32.6987C34.3565 32.4631 34.8545 32.1364 35.2722 31.7187C35.7007 31.2903 36.0327 30.7976 36.2683 30.2407C36.5039 29.673 36.6217 29.0518 36.6217 28.377C36.6217 27.7023 36.5039 27.0864 36.2683 26.5295C36.0327 25.9619 35.7007 25.4692 35.2722 25.0515C34.8545 24.6231 34.3565 24.2964 33.7781 24.0715C33.2105 23.8358 32.5893 23.718 31.9145 23.718C31.2398 23.718 30.6132 23.8358 30.0349 24.0715C29.4565 24.2964 28.9531 24.6231 28.5247 25.0515C28.107 25.4692 27.775 25.9619 27.5286 26.5295C27.293 27.0864 27.1752 27.7023 27.1752 28.377C27.1752 29.0411 27.293 29.6569 27.5286 30.2246C27.775 30.7922 28.107 31.2903 28.5247 31.7187C28.9531 32.1364 29.4565 32.4631 30.0349 32.6987C30.6132 32.9236 31.2398 33.0361 31.9145 33.0361ZM40.2344 34V25.5656H41.3268V27.863L41.2144 27.4613C41.45 26.8187 41.8463 26.3314 42.4032 25.9993C42.9602 25.6566 43.651 25.4852 44.4757 25.4852V26.5938C44.4328 26.5938 44.39 26.5938 44.3472 26.5938C44.3043 26.5831 44.2615 26.5777 44.2186 26.5777C43.3297 26.5777 42.6335 26.8508 42.1301 27.397C41.6267 27.9326 41.375 28.6984 41.375 29.6944V34H40.2344ZM49.9809 34.0803C49.1455 34.0803 48.3958 33.8983 47.7317 33.5341C47.0784 33.1592 46.5643 32.6505 46.1894 32.0079C45.8146 31.3545 45.6271 30.6102 45.6271 29.7748C45.6271 28.9286 45.8146 28.1843 46.1894 27.5416C46.5643 26.899 47.0784 26.3956 47.7317 26.0315C48.3958 25.6673 49.1455 25.4852 49.9809 25.4852C50.6985 25.4852 51.3465 25.6245 51.9248 25.903C52.5032 26.1814 52.9584 26.5991 53.2904 27.1561L52.4389 27.7344C52.1498 27.306 51.791 26.9901 51.3625 26.7866C50.9341 26.5831 50.4682 26.4813 49.9648 26.4813C49.3651 26.4813 48.8242 26.6205 48.3422 26.899C47.8602 27.1668 47.48 27.547 47.2016 28.0397C46.9231 28.5323 46.7839 29.1107 46.7839 29.7748C46.7839 30.4388 46.9231 31.0172 47.2016 31.5098C47.48 32.0025 47.8602 32.3881 48.3422 32.6666C48.8242 32.9343 49.3651 33.0682 49.9648 33.0682C50.4682 33.0682 50.9341 32.9664 51.3625 32.763C51.791 32.5595 52.1498 32.2489 52.4389 31.8311L53.2904 32.4095C52.9584 32.9557 52.5032 33.3734 51.9248 33.6626C51.3465 33.9411 50.6985 34.0803 49.9809 34.0803ZM49.3061 37.5344C49.0384 37.5344 48.792 37.5023 48.5671 37.438C48.3529 37.3738 48.1494 37.2827 47.9566 37.1649L48.2298 36.5544C48.3904 36.6508 48.5564 36.7258 48.7278 36.7793C48.9099 36.8329 49.0973 36.8597 49.2901 36.8597C49.6114 36.8597 49.8577 36.7901 50.0291 36.6508C50.2005 36.5223 50.2861 36.3402 50.2861 36.1046C50.2861 35.8904 50.2005 35.7137 50.0291 35.5744C49.8684 35.4352 49.6221 35.3656 49.2901 35.3656H48.9206L49.3061 33.9036H49.997L49.756 34.8354C50.1951 34.8675 50.5325 35.0014 50.7681 35.237C51.0037 35.4834 51.1216 35.7833 51.1216 36.1367C51.1216 36.5651 50.9502 36.9025 50.6075 37.1489C50.2754 37.4059 49.8417 37.5344 49.3061 37.5344ZM60.8168 34V32.1364L60.7686 31.8311V28.7144C60.7686 27.9968 60.5651 27.4452 60.1581 27.0597C59.7618 26.6741 59.1674 26.4813 58.3748 26.4813C57.8286 26.4813 57.3091 26.5723 56.8164 26.7544C56.3237 26.9365 55.906 27.1775 55.5633 27.4774L55.0492 26.6259C55.4776 26.2617 55.9917 25.9833 56.5915 25.7905C57.1913 25.587 57.8232 25.4852 58.4872 25.4852C59.5797 25.4852 60.4205 25.7584 61.0095 26.3046C61.6093 26.8401 61.9092 27.6595 61.9092 28.7626V34H60.8168ZM57.9089 34.0803C57.277 34.0803 56.7254 33.9786 56.2541 33.7751C55.7936 33.5609 55.4401 33.2717 55.1938 32.9075C54.9475 32.5327 54.8243 32.1043 54.8243 31.6223C54.8243 31.1832 54.926 30.7869 55.1295 30.4334C55.3437 30.0693 55.6865 29.7801 56.1577 29.5659C56.6397 29.341 57.2823 29.2285 58.0856 29.2285H60.9935V30.08H58.1177C57.3037 30.08 56.7361 30.2246 56.4148 30.5138C56.1042 30.803 55.9489 31.1617 55.9489 31.5902C55.9489 32.0721 56.1363 32.4577 56.5112 32.7469C56.886 33.0361 57.4109 33.1807 58.0856 33.1807C58.7282 33.1807 59.2798 33.0361 59.7404 32.7469C60.2116 32.447 60.5544 32.0186 60.7686 31.4616L61.0256 32.2489C60.8114 32.8058 60.4365 33.2503 59.901 33.5823C59.3762 33.9143 58.7122 34.0803 57.9089 34.0803ZM75.5464 25.4852C76.2318 25.4852 76.8263 25.6191 77.3297 25.8869C77.8438 26.1439 78.24 26.5402 78.5185 27.0757C78.8077 27.6113 78.9523 28.286 78.9523 29.1V34H77.8116V29.2125C77.8116 28.3235 77.5974 27.6541 77.169 27.2043C76.7513 26.7437 76.1569 26.5134 75.3857 26.5134C74.8074 26.5134 74.304 26.6366 73.8756 26.883C73.4579 27.1186 73.1312 27.4667 72.8956 27.9272C72.6706 28.377 72.5582 28.9233 72.5582 29.5659V34H71.4175V29.2125C71.4175 28.3235 71.2033 27.6541 70.7749 27.2043C70.3465 26.7437 69.7467 26.5134 68.9756 26.5134C68.4079 26.5134 67.9099 26.6366 67.4815 26.883C67.053 27.1186 66.721 27.4667 66.4854 27.9272C66.2605 28.377 66.148 28.9233 66.148 29.5659V34H65.0074V25.5656H66.0998V27.8469L65.9231 27.4452C66.1801 26.8348 66.5925 26.3581 67.1601 26.0154C67.7385 25.662 68.4186 25.4852 69.2005 25.4852C70.0252 25.4852 70.7267 25.6941 71.3051 26.1118C71.8834 26.5188 72.2583 27.1346 72.4297 27.9593L71.9798 27.7826C72.2262 27.0972 72.6599 26.5456 73.2811 26.1279C73.913 25.6995 74.6681 25.4852 75.5464 25.4852ZM85.6283 34.0803C84.75 34.0803 83.9789 33.8983 83.3148 33.5341C82.6508 33.1592 82.1313 32.6505 81.7565 32.0079C81.3816 31.3545 81.1942 30.6102 81.1942 29.7748C81.1942 28.9393 81.3709 28.2003 81.7243 27.5577C82.0885 26.9151 82.5812 26.4117 83.2024 26.0475C83.8343 25.6727 84.5412 25.4852 85.323 25.4852C86.1156 25.4852 86.8171 25.6673 87.4276 26.0315C88.0488 26.3849 88.5361 26.8883 88.8896 27.5416C89.243 28.1843 89.4198 28.9286 89.4198 29.7748C89.4198 29.8283 89.4144 29.8872 89.4037 29.9515C89.4037 30.005 89.4037 30.0639 89.4037 30.1282H82.0617V29.2767H88.7932L88.3434 29.6141C88.3434 29.0036 88.2095 28.4627 87.9417 27.9915C87.6847 27.5095 87.3312 27.1346 86.8814 26.8669C86.4316 26.5991 85.9121 26.4652 85.323 26.4652C84.7447 26.4652 84.2252 26.5991 83.7647 26.8669C83.3041 27.1346 82.9453 27.5095 82.6883 27.9915C82.4312 28.4734 82.3027 29.025 82.3027 29.6462V29.823C82.3027 30.4656 82.4419 31.0332 82.7204 31.5259C83.0096 32.0079 83.4059 32.3881 83.9093 32.6666C84.4234 32.9343 85.0071 33.0682 85.6604 33.0682C86.1745 33.0682 86.6511 32.9772 87.0902 32.7951C87.5401 32.613 87.9257 32.3345 88.247 31.9597L88.8896 32.6987C88.5147 33.1485 88.0435 33.4913 87.4758 33.7269C86.9189 33.9625 86.303 34.0803 85.6283 34.0803ZM96.0471 25.4852C96.7325 25.4852 97.3323 25.6191 97.8464 25.8869C98.3712 26.1439 98.7782 26.5402 99.0674 27.0757C99.3673 27.6113 99.5172 28.286 99.5172 29.1V34H98.3766V29.2125C98.3766 28.3235 98.1516 27.6541 97.7018 27.2043C97.2627 26.7437 96.6415 26.5134 95.8382 26.5134C95.2384 26.5134 94.7136 26.6366 94.2638 26.883C93.8246 27.1186 93.4819 27.4667 93.2356 27.9272C92.9999 28.377 92.8821 28.9233 92.8821 29.5659V34H91.7415V25.5656H92.8339V27.879L92.6572 27.4452C92.925 26.8348 93.3534 26.3581 93.9425 26.0154C94.5315 25.662 95.2331 25.4852 96.0471 25.4852ZM105.265 34.0803C104.473 34.0803 103.862 33.8661 103.434 33.4377C103.005 33.0093 102.791 32.4042 102.791 31.6223V23.702H103.932V31.558C103.932 32.0507 104.055 32.4309 104.301 32.6987C104.558 32.9664 104.922 33.1003 105.394 33.1003C105.897 33.1003 106.315 32.9557 106.647 32.6666L107.048 33.4859C106.824 33.6894 106.55 33.8393 106.229 33.9357C105.919 34.0321 105.597 34.0803 105.265 34.0803ZM101.281 26.5134V25.5656H106.502V26.5134H101.281ZM112.265 34.0803C111.451 34.0803 110.717 33.8983 110.064 33.5341C109.421 33.1592 108.913 32.6505 108.538 32.0079C108.163 31.3545 107.975 30.6102 107.975 29.7748C107.975 28.9286 108.163 28.1843 108.538 27.5416C108.913 26.899 109.421 26.3956 110.064 26.0315C110.707 25.6673 111.44 25.4852 112.265 25.4852C113.1 25.4852 113.839 25.6673 114.482 26.0315C115.135 26.3956 115.644 26.899 116.008 27.5416C116.383 28.1843 116.57 28.9286 116.57 29.7748C116.57 30.6102 116.383 31.3545 116.008 32.0079C115.644 32.6505 115.135 33.1592 114.482 33.5341C113.829 33.8983 113.09 34.0803 112.265 34.0803ZM112.265 33.0682C112.875 33.0682 113.416 32.9343 113.887 32.6666C114.359 32.3881 114.728 32.0025 114.996 31.5098C115.274 31.0064 115.414 30.4281 115.414 29.7748C115.414 29.1107 115.274 28.5323 114.996 28.0397C114.728 27.547 114.359 27.1668 113.887 26.899C113.416 26.6205 112.881 26.4813 112.281 26.4813C111.681 26.4813 111.146 26.6205 110.674 26.899C110.203 27.1668 109.828 27.547 109.55 28.0397C109.271 28.5323 109.132 29.1107 109.132 29.7748C109.132 30.4281 109.271 31.0064 109.55 31.5098C109.828 32.0025 110.203 32.3881 110.674 32.6666C111.146 32.9343 111.676 33.0682 112.265 33.0682ZM126.686 34.0803C125.808 34.0803 125.037 33.8983 124.373 33.5341C123.709 33.1592 123.19 32.6505 122.815 32.0079C122.44 31.3545 122.252 30.6102 122.252 29.7748C122.252 28.9393 122.429 28.2003 122.783 27.5577C123.147 26.9151 123.639 26.4117 124.261 26.0475C124.893 25.6727 125.599 25.4852 126.381 25.4852C127.174 25.4852 127.875 25.6673 128.486 26.0315C129.107 26.3849 129.594 26.8883 129.948 27.5416C130.301 28.1843 130.478 28.9286 130.478 29.7748C130.478 29.8283 130.473 29.8872 130.462 29.9515C130.462 30.005 130.462 30.0639 130.462 30.1282H123.12V29.2767H129.851L129.402 29.6141C129.402 29.0036 129.268 28.4627 129 27.9915C128.743 27.5095 128.389 27.1346 127.94 26.8669C127.49 26.5991 126.97 26.4652 126.381 26.4652C125.803 26.4652 125.283 26.5991 124.823 26.8669C124.362 27.1346 124.004 27.5095 123.746 27.9915C123.489 28.4734 123.361 29.025 123.361 29.6462V29.823C123.361 30.4656 123.5 31.0332 123.779 31.5259C124.068 32.0079 124.464 32.3881 124.967 32.6666C125.482 32.9343 126.065 33.0682 126.719 33.0682C127.233 33.0682 127.709 32.9772 128.148 32.7951C128.598 32.613 128.984 32.3345 129.305 31.9597L129.948 32.6987C129.573 33.1485 129.102 33.4913 128.534 33.7269C127.977 33.9625 127.361 34.0803 126.686 34.0803ZM143.339 25.4852C144.024 25.4852 144.619 25.6191 145.122 25.8869C145.636 26.1439 146.032 26.5402 146.311 27.0757C146.6 27.6113 146.745 28.286 146.745 29.1V34H145.604V29.2125C145.604 28.3235 145.39 27.6541 144.961 27.2043C144.544 26.7437 143.949 26.5134 143.178 26.5134C142.6 26.5134 142.096 26.6366 141.668 26.883C141.25 27.1186 140.924 27.4667 140.688 27.9272C140.463 28.377 140.351 28.9233 140.351 29.5659V34H139.21V29.2125C139.21 28.3235 138.996 27.6541 138.567 27.2043C138.139 26.7437 137.539 26.5134 136.768 26.5134C136.2 26.5134 135.702 26.6366 135.274 26.883C134.845 27.1186 134.513 27.4667 134.278 27.9272C134.053 28.377 133.94 28.9233 133.94 29.5659V34H132.8V25.5656H133.892V27.8469L133.715 27.4452C133.972 26.8348 134.385 26.3581 134.952 26.0154C135.531 25.662 136.211 25.4852 136.993 25.4852C137.818 25.4852 138.519 25.6941 139.097 26.1118C139.676 26.5188 140.051 27.1346 140.222 27.9593L139.772 27.7826C140.018 27.0972 140.452 26.5456 141.073 26.1279C141.705 25.6995 142.46 25.4852 143.339 25.4852ZM156.726 34.1928C155.944 34.1928 155.167 34.091 154.396 33.8875C153.625 33.6733 152.972 33.3734 152.436 32.9879L153.448 30.9957C153.877 31.3063 154.375 31.5527 154.942 31.7348C155.51 31.9168 156.083 32.0079 156.661 32.0079C157.315 32.0079 157.829 31.8793 158.204 31.6223C158.578 31.3652 158.766 31.0118 158.766 30.562C158.766 30.1336 158.6 29.7962 158.268 29.5498C157.936 29.3035 157.4 29.1803 156.661 29.1803H155.472V27.4613L158.605 23.9108L158.894 24.8426H152.998V22.7541H160.871V24.441L157.754 27.9915L156.436 27.2364H157.192C158.573 27.2364 159.617 27.547 160.324 28.1682C161.031 28.7894 161.385 29.5873 161.385 30.562C161.385 31.1939 161.219 31.7883 160.887 32.3452C160.555 32.8915 160.046 33.336 159.36 33.6787C158.675 34.0214 157.797 34.1928 156.726 34.1928ZM167.406 34.1928C166.485 34.1928 165.66 33.9679 164.932 33.518C164.204 33.0575 163.631 32.3934 163.213 31.5259C162.795 30.6584 162.586 29.6087 162.586 28.377C162.586 27.1454 162.795 26.0957 163.213 25.2282C163.631 24.3607 164.204 23.702 164.932 23.2521C165.66 22.7916 166.485 22.5613 167.406 22.5613C168.338 22.5613 169.162 22.7916 169.88 23.2521C170.608 23.702 171.181 24.3607 171.599 25.2282C172.017 26.0957 172.226 27.1454 172.226 28.377C172.226 29.6087 172.017 30.6584 171.599 31.5259C171.181 32.3934 170.608 33.0575 169.88 33.518C169.162 33.9679 168.338 34.1928 167.406 34.1928ZM167.406 31.9918C167.845 31.9918 168.225 31.8686 168.547 31.6223C168.879 31.376 169.136 30.985 169.318 30.4495C169.511 29.914 169.607 29.2232 169.607 28.377C169.607 27.5309 169.511 26.8401 169.318 26.3046C169.136 25.7691 168.879 25.3781 168.547 25.1318C168.225 24.8855 167.845 24.7623 167.406 24.7623C166.978 24.7623 166.597 24.8855 166.265 25.1318C165.944 25.3781 165.687 25.7691 165.494 26.3046C165.312 26.8401 165.221 27.5309 165.221 28.377C165.221 29.2232 165.312 29.914 165.494 30.4495C165.687 30.985 165.944 31.376 166.265 31.6223C166.597 31.8686 166.978 31.9918 167.406 31.9918ZM181.478 34.1285C180.739 34.1285 180.027 34.0428 179.341 33.8715C178.667 33.6894 178.131 33.4645 177.735 33.1967L178.57 31.3974C178.966 31.6437 179.432 31.8472 179.968 32.0079C180.514 32.1578 181.05 32.2328 181.574 32.2328C182.153 32.2328 182.56 32.1632 182.795 32.0239C183.042 31.8847 183.165 31.6919 183.165 31.4456C183.165 31.2421 183.069 31.0921 182.876 30.9957C182.694 30.8886 182.447 30.8083 182.137 30.7548C181.826 30.7012 181.483 30.6476 181.109 30.5941C180.744 30.5405 180.375 30.4709 180 30.3852C179.625 30.2889 179.282 30.1496 178.972 29.9675C178.661 29.7855 178.409 29.5391 178.217 29.2285C178.035 28.9179 177.944 28.5163 177.944 28.0236C177.944 27.4774 178.099 26.9954 178.409 26.5777C178.731 26.16 179.191 25.8333 179.791 25.5977C180.391 25.3514 181.109 25.2282 181.944 25.2282C182.533 25.2282 183.133 25.2925 183.743 25.421C184.354 25.5495 184.862 25.7369 185.269 25.9833L184.434 27.7666C184.016 27.5202 183.593 27.3542 183.165 27.2685C182.747 27.1721 182.34 27.1239 181.944 27.1239C181.387 27.1239 180.98 27.1989 180.723 27.3489C180.466 27.4988 180.337 27.6916 180.337 27.9272C180.337 28.1414 180.428 28.3021 180.61 28.4092C180.803 28.5163 181.055 28.602 181.366 28.6662C181.676 28.7305 182.014 28.7894 182.378 28.843C182.753 28.8858 183.127 28.9554 183.502 29.0518C183.877 29.1482 184.215 29.2874 184.514 29.4695C184.825 29.6409 185.077 29.8819 185.269 30.1925C185.462 30.4923 185.559 30.8886 185.559 31.3813C185.559 31.9168 185.398 32.3934 185.077 32.8111C184.755 33.2181 184.289 33.5395 183.679 33.7751C183.079 34.0107 182.346 34.1285 181.478 34.1285ZM191.394 34.1285C190.409 34.1285 189.542 33.9357 188.792 33.5502C188.053 33.1646 187.48 32.6398 187.073 31.9757C186.666 31.301 186.462 30.5352 186.462 29.6784C186.462 28.8108 186.66 28.045 187.057 27.381C187.464 26.7062 188.015 26.1814 188.712 25.8066C189.408 25.421 190.195 25.2282 191.073 25.2282C191.919 25.2282 192.68 25.4103 193.354 25.7744C194.04 26.1279 194.581 26.642 194.977 27.3167C195.373 27.9808 195.572 28.7787 195.572 29.7105C195.572 29.8069 195.566 29.9193 195.555 30.0479C195.545 30.1657 195.534 30.2781 195.523 30.3852H188.503V28.9233H194.206L193.242 29.357C193.242 28.9072 193.151 28.5163 192.969 28.1843C192.787 27.8522 192.535 27.5952 192.214 27.4131C191.893 27.2203 191.518 27.1239 191.089 27.1239C190.661 27.1239 190.281 27.2203 189.949 27.4131C189.627 27.5952 189.376 27.8576 189.194 28.2003C189.011 28.5323 188.92 28.9286 188.92 29.3892V29.7748C188.92 30.246 189.022 30.6637 189.226 31.0279C189.44 31.3813 189.734 31.6544 190.109 31.8472C190.495 32.0293 190.945 32.1203 191.459 32.1203C191.919 32.1203 192.321 32.0507 192.664 31.9115C193.017 31.7722 193.338 31.5634 193.628 31.2849L194.961 32.7308C194.565 33.1807 194.067 33.5287 193.467 33.7751C192.867 34.0107 192.176 34.1285 191.394 34.1285ZM201.305 37.2452C200.491 37.2452 199.703 37.1435 198.943 36.94C198.193 36.7472 197.567 36.4527 197.063 36.0564L198.059 34.257C198.424 34.5569 198.884 34.7926 199.441 34.9639C200.009 35.146 200.566 35.237 201.112 35.237C202.001 35.237 202.643 35.0389 203.04 34.6426C203.447 34.2463 203.65 33.6573 203.65 32.8754V31.5741L203.811 29.4052L203.779 27.2203V25.3567H206.156V32.5541C206.156 34.1607 205.739 35.3442 204.903 36.1046C204.068 36.865 202.868 37.2452 201.305 37.2452ZM200.919 33.5823C200.116 33.5823 199.388 33.4109 198.734 33.0682C198.092 32.7148 197.572 32.2274 197.176 31.6062C196.79 30.9743 196.597 30.2407 196.597 29.4052C196.597 28.5591 196.79 27.8255 197.176 27.2043C197.572 26.5723 198.092 26.085 198.734 25.7423C199.388 25.3996 200.116 25.2282 200.919 25.2282C201.647 25.2282 202.29 25.3781 202.847 25.678C203.404 25.9672 203.838 26.4224 204.148 27.0436C204.459 27.6541 204.614 28.4413 204.614 29.4052C204.614 30.3585 204.459 31.1457 204.148 31.7669C203.838 32.3774 203.404 32.8326 202.847 33.1325C202.29 33.4323 201.647 33.5823 200.919 33.5823ZM201.417 31.5259C201.856 31.5259 202.247 31.4402 202.59 31.2689C202.933 31.0868 203.2 30.8351 203.393 30.5138C203.586 30.1925 203.682 29.823 203.682 29.4052C203.682 28.9768 203.586 28.6073 203.393 28.2967C203.2 27.9754 202.933 27.7291 202.59 27.5577C202.247 27.3756 201.856 27.2846 201.417 27.2846C200.978 27.2846 200.587 27.3756 200.244 27.5577C199.902 27.7291 199.629 27.9754 199.425 28.2967C199.232 28.6073 199.136 28.9768 199.136 29.4052C199.136 29.823 199.232 30.1925 199.425 30.5138C199.629 30.8351 199.902 31.0868 200.244 31.2689C200.587 31.4402 200.978 31.5259 201.417 31.5259ZM212.136 34.1285C211.418 34.1285 210.776 33.9893 210.208 33.7108C209.651 33.4323 209.217 33.0093 208.907 32.4416C208.596 31.8633 208.441 31.1296 208.441 30.2407V25.3567H210.947V29.8711C210.947 30.5887 211.097 31.1189 211.397 31.4616C211.708 31.7937 212.141 31.9597 212.698 31.9597C213.084 31.9597 213.427 31.8793 213.727 31.7187C214.026 31.5473 214.262 31.2903 214.433 30.9475C214.605 30.5941 214.69 30.155 214.69 29.6302V25.3567H217.197V34H214.819V31.6223L215.253 32.3131C214.964 32.9129 214.535 33.3681 213.967 33.6787C213.411 33.9786 212.8 34.1285 212.136 34.1285ZM224.772 25.2282C225.457 25.2282 226.068 25.3674 226.603 25.6459C227.15 25.9137 227.578 26.3314 227.889 26.899C228.199 27.456 228.355 28.1736 228.355 29.0518V34H225.848V29.4374C225.848 28.7412 225.693 28.2271 225.382 27.8951C225.083 27.5631 224.654 27.397 224.097 27.397C223.701 27.397 223.342 27.4827 223.021 27.6541C222.71 27.8148 222.464 28.0664 222.282 28.4092C222.11 28.7519 222.025 29.191 222.025 29.7266V34H219.519V25.3567H221.912V27.7505L221.462 27.0275C221.773 26.4492 222.218 26.0047 222.796 25.6941C223.374 25.3835 224.033 25.2282 224.772 25.2282ZM234.4 34.1285C233.586 34.1285 232.853 33.9464 232.199 33.5823C231.546 33.2074 231.026 32.688 230.641 32.0239C230.266 31.3599 230.079 30.578 230.079 29.6784C230.079 28.768 230.266 27.9808 230.641 27.3167C231.026 26.6527 231.546 26.1386 232.199 25.7744C232.853 25.4103 233.586 25.2282 234.4 25.2282C235.129 25.2282 235.766 25.3889 236.312 25.7102C236.858 26.0315 237.281 26.5188 237.581 27.1721C237.881 27.8255 238.031 28.6609 238.031 29.6784C238.031 30.6851 237.886 31.5205 237.597 32.1846C237.308 32.8379 236.89 33.3252 236.344 33.6466C235.809 33.9679 235.161 34.1285 234.4 34.1285ZM234.834 32.0721C235.241 32.0721 235.611 31.9757 235.943 31.783C236.275 31.5902 236.537 31.317 236.73 30.9636C236.933 30.5995 237.035 30.171 237.035 29.6784C237.035 29.175 236.933 28.7466 236.73 28.3931C236.537 28.0397 236.275 27.7666 235.943 27.5738C235.611 27.381 235.241 27.2846 234.834 27.2846C234.416 27.2846 234.041 27.381 233.709 27.5738C233.377 27.7666 233.11 28.0397 232.906 28.3931C232.713 28.7466 232.617 29.175 232.617 29.6784C232.617 30.171 232.713 30.5995 232.906 30.9636C233.11 31.317 233.377 31.5902 233.709 31.783C234.041 31.9757 234.416 32.0721 234.834 32.0721ZM237.099 34V32.2328L237.147 29.6623L236.987 27.1079V22.0793H239.493V34H237.099ZM245.925 34.1285C245.004 34.1285 244.185 33.9357 243.467 33.5502C242.761 33.1646 242.198 32.6398 241.781 31.9757C241.374 31.301 241.17 30.5352 241.17 29.6784C241.17 28.8108 241.374 28.045 241.781 27.381C242.198 26.7062 242.761 26.1814 243.467 25.8066C244.185 25.421 245.004 25.2282 245.925 25.2282C246.836 25.2282 247.65 25.421 248.367 25.8066C249.085 26.1814 249.647 26.7009 250.054 27.3649C250.461 28.029 250.665 28.8001 250.665 29.6784C250.665 30.5352 250.461 31.301 250.054 31.9757C249.647 32.6398 249.085 33.1646 248.367 33.5502C247.65 33.9357 246.836 34.1285 245.925 34.1285ZM245.925 32.0721C246.343 32.0721 246.718 31.9757 247.05 31.783C247.382 31.5902 247.644 31.317 247.837 30.9636C248.03 30.5995 248.126 30.171 248.126 29.6784C248.126 29.175 248.03 28.7466 247.837 28.3931C247.644 28.0397 247.382 27.7666 247.05 27.5738C246.718 27.381 246.343 27.2846 245.925 27.2846C245.508 27.2846 245.133 27.381 244.801 27.5738C244.469 27.7666 244.201 28.0397 243.998 28.3931C243.805 28.7466 243.708 29.175 243.708 29.6784C243.708 30.171 243.805 30.5995 243.998 30.9636C244.201 31.317 244.469 31.5902 244.801 31.783C245.133 31.9757 245.508 32.0721 245.925 32.0721ZM255.248 34.1285C254.509 34.1285 253.797 34.0428 253.111 33.8715C252.436 33.6894 251.901 33.4645 251.505 33.1967L252.34 31.3974C252.736 31.6437 253.202 31.8472 253.738 32.0079C254.284 32.1578 254.819 32.2328 255.344 32.2328C255.923 32.2328 256.33 32.1632 256.565 32.0239C256.812 31.8847 256.935 31.6919 256.935 31.4456C256.935 31.2421 256.838 31.0921 256.646 30.9957C256.463 30.8886 256.217 30.8083 255.907 30.7548C255.596 30.7012 255.253 30.6476 254.878 30.5941C254.514 30.5405 254.145 30.4709 253.77 30.3852C253.395 30.2889 253.052 30.1496 252.742 29.9675C252.431 29.7855 252.179 29.5391 251.987 29.2285C251.804 28.9179 251.713 28.5163 251.713 28.0236C251.713 27.4774 251.869 26.9954 252.179 26.5777C252.501 26.16 252.961 25.8333 253.561 25.5977C254.161 25.3514 254.878 25.2282 255.714 25.2282C256.303 25.2282 256.903 25.2925 257.513 25.421C258.124 25.5495 258.632 25.7369 259.039 25.9833L258.204 27.7666C257.786 27.5202 257.363 27.3542 256.935 27.2685C256.517 27.1721 256.11 27.1239 255.714 27.1239C255.157 27.1239 254.75 27.1989 254.493 27.3489C254.236 27.4988 254.107 27.6916 254.107 27.9272C254.107 28.1414 254.198 28.3021 254.38 28.4092C254.573 28.5163 254.825 28.602 255.135 28.6662C255.446 28.7305 255.783 28.7894 256.148 28.843C256.522 28.8858 256.897 28.9554 257.272 29.0518C257.647 29.1482 257.984 29.2874 258.284 29.4695C258.595 29.6409 258.847 29.8819 259.039 30.1925C259.232 30.4923 259.329 30.8886 259.329 31.3813C259.329 31.9168 259.168 32.3934 258.847 32.8111C258.525 33.2181 258.059 33.5395 257.449 33.7751C256.849 34.0107 256.115 34.1285 255.248 34.1285Z"
    fill="white"/>
  <g clip-path="url(#clip0_711_101210)">
    <ellipse cx="299.5" cy="28.5" rx="27.5" ry="25.5" fill="white"/>
    <path
      d="M299.574 14.6585C292.019 14.6585 285.877 20.8002 285.875 28.3527C285.872 31.4355 286.777 33.744 288.295 36.1594L286.912 41.2134L292.095 39.8525C294.417 41.23 296.633 42.0565 299.564 42.0589C307.112 42.0589 313.261 35.9147 313.263 28.3646C313.266 20.7955 307.147 14.6609 299.574 14.6585ZM307.63 34.238C307.288 35.1999 305.642 36.0762 304.851 36.195C304.141 36.3019 303.243 36.3446 302.257 36.0311C301.659 35.8411 300.892 35.587 299.911 35.1642C295.781 33.3806 293.085 29.222 292.878 28.9489C292.672 28.6734 291.197 26.7164 291.197 24.6905C291.197 22.6646 292.261 21.6671 292.639 21.2563C293.016 20.8454 293.46 20.7409 293.736 20.7409L294.524 20.7551C294.776 20.767 295.116 20.6601 295.451 21.4629C295.793 22.287 296.617 24.3129 296.719 24.5195C296.821 24.7261 296.89 24.966 296.752 25.2415C296.614 25.517 296.545 25.688 296.341 25.9279L295.724 26.6499C295.517 26.8541 295.303 27.0774 295.543 27.4906C295.783 27.9039 296.61 29.2505 297.833 30.343C299.405 31.7466 300.733 32.1812 301.144 32.3855C301.554 32.5897 301.794 32.5565 302.036 32.2834C302.276 32.0079 303.065 31.0816 303.34 30.6684C303.616 30.2575 303.889 30.324 304.267 30.4618C304.644 30.5995 306.668 31.5946 307.079 31.8013C307.489 32.0079 307.765 32.11 307.867 32.281C307.974 32.452 307.974 33.2761 307.63 34.238ZM299.5 0C283.761 0 271 12.7609 271 28.5C271 44.2391 283.761 57 299.5 57C315.239 57 328 44.2391 328 28.5C328 12.7609 315.239 0 299.5 0ZM299.569 44.84C296.812 44.84 294.094 44.1465 291.689 42.8355L282.956 45.125L285.293 36.5869C283.851 34.0884 283.091 31.2526 283.094 28.3504C283.096 19.266 290.487 11.875 299.569 11.875C303.977 11.8774 308.114 13.5921 311.223 16.7057C314.334 19.8194 316.047 23.959 316.044 28.3623C316.042 37.4466 308.651 44.84 299.569 44.84Z"
      fill="#00E900"/>
  </g>
  <defs>
    <clipPath id="clip0_711_101210">
      <rect width="57" height="57" fill="white" transform="translate(271)"/>
    </clipPath>
  </defs>
</svg>
